PathFileType	4	(X/Y/Z)	Patient4_TMGait_0pt3_01_right_11.trc.trc
DataRate	CameraRate	NumFrames	NumMarkers	Units	OrigDataRate	OrigDataStartFrame	OrigNumFrames
51.282051282051	51.282051282051	4	33	mm	51.282051282051	71	       141
Frame#	Time	Sacral			L.Shoulder			Chest			R.Shoulder			Neck			R.ASIS			L.ASIS			R.Thigh.Superior			R.Thigh.Lateral			R.Thigh.Inferior			R.Patella			L.Thigh.Superior			L.Thigh.Lateral			L.Thigh.Inferior			L.Patella			L.Shank.Superior			L.Shank.Lateral			L.Shank.Inferior			R.Shank.Superior			R.Shank.Lateral			R.Shank.Inferior			R.Heel			R.Midfoot.Superior			R.Midfoot.Lateral			R.Toe			L.Heel			L.Midfoot.Lateral			L.Midfoot.Superior			L.Toe			L.Elbow			L.Wrist			R.Elbow			R.Wrist			
		X1	Y1	Z1	X2	Y2	Z2	X3	Y3	Z3	X4	Y4	Z4	X5	Y5	Z5	X6	Y6	Z6	X7	Y7	Z7	X8	Y8	Z8	X9	Y9	Z9	X10	Y10	Z10	X11	Y11	Z11	X12	Y12	Z12	X13	Y13	Z13	X14	Y14	Z14	X15	Y15	Z15	X16	Y16	Z16	X17	Y17	Z17	X18	Y18	Z18	X19	Y19	Z19	X20	Y20	Z20	X21	Y21	Z21	X22	Y22	Z22	X23	Y23	Z23	X24	Y24	Z24	X25	Y25	Z25	X26	Y26	Z26	X27	Y27	Z27	X28	Y28	Z28	X29	Y29	Z29	X30	Y30	Z30	X31	Y31	Z31	X32	Y32	Z32	X33	Y33	Z33	

71	20.735000000000	610.268295182630	991.446240780054	552.290921604919	743.274259510584	1418.494794968425	346.101370870399	878.335857453847	1352.721758288765	483.238685111217	831.191128740399	1428.261231110689	668.491551218468	763.517475205125	1481.779174935646	501.121220364059	850.546236785006	926.108280334329	639.608224328148	804.694543360254	950.823744154152	369.125595701678	851.020488677044	714.116748888810	604.130076096446	752.489618444620	613.226647618197	665.348634258071	811.574745099698	553.357790049726	579.549592748541	792.121883855685	462.823031513709	581.828030334908	885.987986675168	763.538876689153	396.511624164856	833.405423331125	636.245263546111	317.645399873680	935.956976802075	577.622935341652	378.221993930992	956.706151782502	509.381295220587	374.802010373834	938.283852722777	435.959344539874	359.811659644508	866.387831811451	312.526490467091	301.769846161090	945.774206319677	206.415006009471	355.424646796395	743.720423455424	380.973994060487	587.763643367634	652.414090175463	292.562137048822	648.769738271289	670.525474347777	194.226113042163	582.294168561254	507.397521196916	44.217862946820	547.104649767664	678.442179952607	95.196638993537	591.062086507232	586.256367944054	36.764853019723	625.885566131931	794.706668448187	39.994798542348	628.240374532368	849.361723316854	36.460428562094	386.039686775140	923.039378637391	38.092335114449	305.325889253011	999.915094608805	108.164451595805	330.703526675913	1130.877780563544	68.745600030942	301.441005283671	588.699466050632	1099.354760956862	269.475945770644	583.149307774390	837.542079416092	264.026792615174	1008.262495728236	1140.886327306043	769.465892518911	1208.407402446493	1255.713406939654	670.024659569816	
72	20.754500000000	611.963861158772	990.258468937938	548.530979079482	744.064128855060	1416.826599045538	341.183662805375	879.517244246702	1351.626499036890	478.249439840621	832.403152209088	1427.545673971696	663.359041129067	764.551943322539	1480.593036309984	495.943489899541	852.350001293271	925.080870598618	636.246564493962	806.542265940562	949.371213629994	365.671058483711	850.976527818955	712.645476200211	601.638981928647	751.124696496735	612.793977879844	663.071893505784	809.566665365464	552.011723481123	577.712623169508	788.859335666764	461.759594466950	580.192108763096	888.519727876882	762.359733490680	393.672236934090	835.393515371626	634.786072577256	315.431866087658	938.365074461181	576.202909729313	375.478486039137	958.086810219449	507.284375045151	372.662113104097	939.236145692575	433.731389972020	358.083173276576	865.885235433164	311.088907012849	300.337061835029	943.236214451404	204.182990183434	354.773332204983	740.005646201139	380.264021341402	586.496845234913	647.947784704322	292.824285061642	647.907092752218	665.444340414267	194.069866368756	581.850326516897	501.577101761535	44.576001646642	547.061601542420	672.739503898341	95.255235495404	591.007419619995	580.424928102344	36.918578661028	625.830876326425	788.891079625634	39.840611154568	628.266158234055	843.607014053348	36.694102175456	386.118439360453	916.984113952586	36.872293934337	305.014631603765	995.472511138823	105.175326727965	330.360268013911	1125.590910992649	62.917934802860	300.553122117325	592.497509927867	1095.776467168521	265.459522679587	594.181010902731	833.604859787891	260.630543820375	1012.370763823973	1141.900527921648	763.140507896321	1210.131104016994	1259.217794460725	661.668931400804	
73	20.774000000000	613.668179532658	989.232025660793	544.598929375265	745.165318885359	1415.193397904423	336.075535376489	880.956151983229	1350.522427338077	473.105447912113	833.872558023235	1426.906260452065	658.055218092109	765.851634238518	1479.478787638178	490.553806169418	854.094996842230	924.076806564148	632.751784347026	808.471222876839	948.083638579023	362.071416173801	851.140919083159	711.264466803998	599.046444042665	750.137922650695	612.364456732609	660.658536876376	808.121260410402	550.714006804100	575.776595988078	786.337129092127	460.612764891563	578.548373603710	891.310728965832	761.651850443392	391.063373974255	838.114886850107	633.732295917756	313.273306381394	941.333523537615	575.224288581055	373.026377805483	960.176207081033	505.582844935616	370.814297335786	940.785122280285	431.766255461340	356.640706139190	865.914715093648	310.060018113075	298.960456474893	940.780974446030	202.207326681471	354.343990591677	736.805723559125	379.555436389490	585.199620406667	643.851074081986	293.275489698015	647.016257571195	660.588272559519	194.044944185117	581.437301816239	495.824964974097	45.283252262153	547.050383907437	667.135949103521	95.369311705530	590.980484597136	574.654853271144	37.251326577787	625.794482786998	783.119164101589	39.602078465248	628.305409857110	837.629106703287	37.025377713381	386.214446971681	910.786720798477	35.957784660419	304.812529049190	990.772235291731	102.588513175157	330.248937089498	1120.108756686389	57.722723614520	300.003894440279	597.006545765123	1092.072947329282	260.989082537315	606.476145352191	829.829139820916	256.359037170269	1016.160114402369	1142.662971310776	756.851161412808	1212.242919563571	1261.637606242980	653.799527996496	
74	20.793500000000	615.382853312210	988.492918032530	540.481462208194	746.576509322751	1413.733370661965	330.825818816360	882.645270116272	1349.530293935753	467.851166834237	835.599289889382	1426.442579065348	652.628389230463	767.406376519660	1478.545202641291	485.013830698716	855.749303804892	923.195843996165	629.116751931871	810.485617234894	947.063835799036	358.328440600596	851.445062842513	710.057790852576	596.367701816245	749.447076327978	612.036696919291	658.138276146655	807.156692388308	549.547766595518	573.782311981403	784.471091589364	459.473971306820	576.946538058749	894.207069369096	761.361384799417	388.602892925137	841.266873899871	633.059713264312	311.126596130785	944.524612460177	574.604952619643	370.837491142664	962.641253229197	504.256096238941	369.236987785001	942.629382682626	430.085106354820	355.444912403525	866.265614039758	309.395566081611	297.648268197985	938.346011769607	200.528313513253	354.100711739029	734.062494395339	378.939832012635	583.912394478605	640.086523237486	293.987963977356	646.113253923419	655.959411110515	194.226449644105	581.076128410755	490.162250766853	46.430812110052	547.079910746493	661.657387347843	95.558597596857	590.989460338514	568.961474305751	37.818844875972	625.782847084864	777.391207525895	39.281439679105	628.356246382972	831.592278189346	37.391771319386	386.294392403757	904.612512742679	35.348341119972	304.692400556615	985.892389899158	100.493154816188	330.329093241660	1114.558664580583	53.387215007673	299.754671173525	602.062361223947	1088.485802429921	256.138410816933	619.775215226844	826.505383439750	251.237159554826	1019.643525788437	1143.272729978839	750.636137598971	1214.804196750846	1263.033901966907	646.431686235844	
